<!DOCTYPE svg PUBLIC "-//W3C//DTD SVG 1.1//EN" "http://www.w3.org/Graphics/SVG/1.1/DTD/svg11.dtd">
<!-- Uploaded to: SVG Find, www.svgfind.com, Transformed by: SVG Find Mixer Tools -->
<svg fill="#ffffff" width="800px" height="800px" version="1.1" viewBox="144 144 512 512" xmlns="http://www.w3.org/2000/svg" stroke="#ffffff">
<g id="SVGRepo_bgCarrier" stroke-width="0"/>
<g id="SVGRepo_tracerCarrier" stroke-linecap="round" stroke-linejoin="round"/>
<g id="SVGRepo_iconCarrier"> <g> <path d="m353.79 376.38h7.793c-0.078125 1.4961-0.078125 2.9922-0.15625 4.4883 5.3555 3.543 10.469 7.8711 15.352 13.066 0.15625-5.9023 0.31641-11.73 0.47266-17.555h45.5c0.31641 10.391 0.62891 20.859 0.70703 31.488h-35.895c3.1484 4.7227 6.0625 9.9961 8.7383 15.742h22.434c6.2188-6.8477 13.145-12.438 20.469-16.848-0.15625-9.9961-0.39453-20.23-0.78906-30.387h37.941c0.55078 5.9844 0.94531 11.965 1.3398 18.027 2.2031-0.15625 4.4883-0.23438 6.6914-0.23438 2.9922 0 5.9844 0.15625 8.9727 0.47266-6.2969-102.02-40.699-222.94-93.363-222.94-48.254 0-81.238 101.55-91.238 197.04 3.6992-0.47266 7.3203-0.70703 10.863-0.70703 11.414 0 23.066 2.5977 34.164 8.3438zm24.09-15.742c0.47266-10.707 1.0234-21.254 1.6523-31.488h40.934c0.62891 10.234 1.1797 20.781 1.6523 31.488h-44.242zm96.824 0h-36.84c-0.47266-10.629-1.0234-21.098-1.6523-31.488h33.93c1.8125 10.234 3.3047 20.781 4.5664 31.488zm-7.5586-47.23h-32.039c-0.78906-10.785-1.6523-21.332-2.5977-31.488h27.16c2.7539 9.9961 5.2734 20.547 7.4766 31.488zm-12.121-47.23h-24.168c-0.31641-2.2031-0.55078-4.5664-0.78906-6.7695-1.1016-9.1328-2.2031-17.398-3.3047-24.719h16.453c4.1719 9.4453 8.1094 19.996 11.809 31.488zm-19.602-47.23h-11.336c-1.7305-9.0547-3.4648-16.453-5.1953-22.355 5.668 5.3516 11.258 12.91 16.531 22.355zm-35.426-29.047c2.6758 5.1172 5.4336 15.191 8.1094 29.047h-16.219c2.6758-13.855 5.4336-23.93 8.1094-29.047zm-10.785 44.793h21.57c1.4961 9.4453 2.9141 19.996 4.1719 31.488h-29.914c1.2578-11.492 2.6758-22.043 4.1719-31.488zm27.473 47.23c0.94531 9.9961 1.8906 20.547 2.6758 31.488h-38.73c0.78906-10.941 1.7305-21.492 2.6758-31.488zm-35.582-85.332c-1.7305 5.9844-3.4648 13.305-5.1953 22.355h-11.336c5.2734-9.4453 10.863-17.004 16.531-22.355zm-24.324 38.102h16.453c-1.1016 7.3203-2.2031 15.586-3.3047 24.719-0.23438 2.2031-0.47266 4.5664-0.78906 6.7695h-24.168c3.6992-11.492 7.6367-22.043 11.809-31.488zm-16.453 47.23h27.16c-0.94531 10.156-1.8125 20.703-2.5977 31.488h-32.039c2.2031-10.941 4.7227-21.492 7.4766-31.488zm-10.469 47.23h33.93c-0.62891 10.391-1.1797 20.859-1.6523 31.488h-36.84c1.2578-10.707 2.7539-21.254 4.5664-31.488z"/> <path d="m400 529.73v-0.035157c0-145.44-78.719-184.8-157.44-106.08 55.105 7.8711 64.078 23.445 70.848 70.848 6.9883 48.914 7.8203 85.398 62.977 92.984v25.098c0 4.3477 3.5234 7.8711 7.8711 7.8711h31.488c4.3477 0 7.8711-3.5234 7.8711-7.8711v-24.941c30.367-3.8242 56.695-17.695 62.977-61.648 6.7695-47.391 7.8711-78.719 70.848-78.719-62.977-70.848-157.44-39.359-157.44 82.5zm-37.68-60.988c-0.73437 0.21484-1.4805 0.31641-2.2109 0.31641-3.4062 0-6.5508-2.2305-7.5547-5.6641-4.9414-16.922-11.883-29.207-20.059-35.523-3.4414-2.6523-4.0742-7.6016-1.418-11.039 2.6719-3.4453 7.6055-4.0586 11.043-1.4141 10.984 8.4883 19.582 23.141 25.551 43.566 1.2188 4.1758-1.1758 8.543-5.3516 9.7617zm103.49 39.422c-1.0234 4.5664-1.8906 9.4453-2.5977 14.484-1.7305 12.359-5.0391 24.875-16.848 33.062-1.3398 0.94531-2.9141 1.418-4.4883 1.418-2.5195 0-4.9609-1.1797-6.4531-3.3867-2.5195-3.6211-1.5742-8.5 1.9688-11.02 5.5898-3.8555 8.5-10.078 10.234-22.355 0.78906-5.4336 1.7305-10.707 2.832-15.664 0.94531-4.25 5.1953-6.9258 9.4453-5.9844 4.25 0.94531 6.9258 5.1953 5.9023 9.4453z"/> </g> </g>
</svg>